<?xml version="1.0" standalone="no"?>
<!DOCTYPE svg PUBLIC "-//W3C//DTD SVG 20010904//EN"
 "http://www.w3.org/TR/2001/REC-SVG-20010904/DTD/svg10.dtd">
<svg version="1.0" xmlns="http://www.w3.org/2000/svg"
 width="512.000000pt" height="512.000000pt" viewBox="0 0 512.000000 512.000000"
 preserveAspectRatio="xMidYMid meet">
<metadata>
Created by potrace 1.14, written by Peter Selinger 2001-2017
</metadata>
<g transform="translate(0.000000,512.000000) scale(0.100000,-0.100000)"
fill="#000000" stroke="none">
<path d="M3373 4362 c-18 -12 -22 -52 -7 -81 43 -87 283 -604 288 -619 5 -14
-1 -24 -20 -36 -14 -10 -29 -15 -32 -11 -4 4 -30 43 -57 88 l-51 82 -202 3
-202 2 0 -50 0 -50 173 0 172 -1 43 -73 c23 -40 42 -75 42 -78 0 -2 -14 -14
-30 -26 l-30 -23 -29 34 c-16 18 -54 46 -83 62 -46 25 -64 29 -133 30 -44 0
-93 -3 -110 -7 -49 -11 -345 -65 -455 -83 -19 -3 -42 -8 -50 -10 -8 -2 -33 -6
-55 -10 -103 -14 -200 -92 -240 -191 l-24 -59 -271 -3 -272 -2 -81 49 c-45 27
-98 58 -117 69 -187 105 -270 164 -382 276 l-117 116 -403 0 c-319 -1 -407 -3
-420 -14 -16 -12 -18 -33 -18 -179 l0 -166 33 -24 c17 -14 80 -55 140 -92 59
-37 107 -70 107 -74 -1 -3 -35 -26 -78 -50 -206 -118 -179 -91 -291 -293 -56
-99 -101 -184 -101 -188 0 -8 80 -53 85 -48 2 2 10 15 17 28 7 14 51 91 96
171 l83 147 149 86 148 87 177 -112 c97 -61 178 -109 179 -108 2 2 7 12 12 21
8 15 19 11 94 -36 47 -30 84 -58 83 -62 -1 -5 -4 -16 -7 -24 -5 -11 54 -53
224 -159 126 -79 230 -144 230 -145 0 -1 14 -41 30 -89 17 -49 30 -92 30 -97
0 -5 -30 -26 -67 -47 l-68 -39 -45 44 c-148 144 -383 245 -600 259 -84 5 -89
4 -104 -18 -10 -17 -15 -48 -14 -107 0 -46 -2 -85 -4 -87 -2 -3 -22 -7 -44
-10 -93 -12 -157 -31 -243 -72 -291 -139 -465 -431 -448 -752 3 -58 8 -115 10
-127 54 -232 200 -425 407 -537 123 -66 247 -95 394 -92 396 8 719 299 772
694 l6 46 108 1 107 0 -16 -25 c-9 -15 -40 -61 -68 -103 -29 -42 -53 -83 -53
-91 0 -8 8 -21 18 -30 17 -16 92 -17 875 -17 851 0 857 0 878 21 11 11 18 28
15 37 -3 9 -8 44 -11 77 -3 33 -8 71 -10 85 -2 14 -7 45 -10 70 -4 25 -8 56
-10 70 -2 14 -7 50 -10 80 -3 30 -7 64 -9 75 -2 13 33 61 103 145 58 69 110
130 116 136 5 6 26 30 45 54 19 24 51 61 71 84 l36 40 16 -29 c15 -29 15 -30
-40 -89 -134 -144 -201 -310 -209 -511 -9 -266 100 -499 310 -660 134 -102
284 -156 451 -161 166 -5 289 26 436 108 333 188 478 623 330 987 -91 223
-308 413 -536 467 -70 16 -104 21 -185 22 -64 2 -126 -4 -190 -17 -52 -11 -95
-19 -95 -18 -1 1 -18 30 -38 65 -20 35 -37 71 -37 80 0 9 18 36 40 59 36 37
38 43 25 57 -8 8 -15 17 -15 21 0 13 114 145 125 145 6 0 17 -6 24 -12 10 -11
15 -10 24 3 7 8 52 63 101 122 l89 107 107 0 c91 0 109 3 123 18 10 10 17 22
17 26 0 4 17 38 39 74 116 199 126 220 115 247 -9 23 -133 154 -569 604 -373
384 -394 401 -526 436 -58 16 -305 21 -326 7z m-2633 -2544 l0 -143 -100 100
c-55 55 -100 102 -100 105 0 17 128 74 174 78 l26 2 0 -142z m3758 110 c92
-42 92 -40 -4 -135 l-86 -85 -19 31 c-15 25 -19 51 -19 128 l0 96 41 -7 c22
-3 61 -16 87 -28z m-3929 -223 l104 -105 -147 0 c-165 0 -160 -3 -131 81 13
37 62 129 68 129 1 0 49 -47 106 -105z m4152 -21 c31 -89 38 -84 -126 -84 -80
0 -145 2 -145 4 0 2 46 49 102 104 l102 101 24 -36 c13 -19 33 -60 43 -89z
m-666 22 c30 -52 55 -97 55 -100 0 -3 -45 -6 -101 -6 l-101 0 7 33 c12 54 65
167 80 167 2 0 29 -42 60 -94z m-3486 -310 l-104 -105 -18 22 c-25 32 -56 104
-63 149 l-7 38 148 0 148 0 -104 -104z m638 67 c-6 -36 -46 -126 -68 -156 -13
-16 -23 -9 -117 86 l-102 103 146 0 146 0 -5 -33z m2890 -67 c-92 -94 -103
-103 -116 -88 -22 27 -59 114 -66 155 l-7 37 145 0 146 0 -102 -104z m640 72
c-7 -46 -26 -97 -54 -140 -13 -21 -24 -38 -26 -38 -1 0 -49 47 -107 105 l-105
105 148 0 149 0 -5 -32z m-3693 -257 c-27 -27 -160 -81 -196 -81 -4 0 -8 68
-8 152 l0 151 107 -107 c63 -63 103 -110 97 -115z m3527 -4 c-15 -19 -117 -64
-163 -72 l-38 -7 0 153 0 154 106 -107 c86 -87 105 -110 95 -121z m-3831 68
l0 -145 -27 6 c-52 13 -128 44 -153 64 l-25 19 100 101 c55 55 101 100 102
100 2 0 3 -65 3 -145z m3530 0 l0 -145 -22 4 c-70 14 -178 66 -178 85 0 7 190
201 197 201 2 0 3 -65 3 -145z"/>
</g>
</svg>
